# Blender v2.78 (sub 0) OBJ File: ''
# www.blender.org
mtllib trap2.mtl
o Pyramid002
v 11.423700 -4.205780 -11.584597
v 2.797100 -23.633781 -3.102999
v 20.050301 -23.633781 -3.102999
v 20.050301 -23.633780 -20.066200
v 2.797100 -23.633780 -20.066200
v 11.423700 -23.633781 -11.584599
v -10.820900 -4.205784 11.507104
v -19.447500 -23.633785 19.988701
v -2.194300 -23.633785 19.988701
v -2.194300 -23.633783 3.025501
v -19.447500 -23.633783 3.025501
v -10.820900 -23.633785 11.507101
v -10.509500 -4.205780 -11.584597
v -19.136101 -23.633781 -3.102999
v -1.882900 -23.633781 -3.102999
v -1.882900 -23.633780 -20.066200
v -19.136101 -23.633780 -20.066200
v -10.509500 -23.633781 -11.584599
v 11.038700 -4.205784 11.507104
v 2.412100 -23.633785 19.988701
v 19.665300 -23.633785 19.988701
v 19.665300 -23.633783 3.025501
v 2.412100 -23.633783 3.025501
v 11.038700 -23.633785 11.507101
vt 0.5000 1.0000
vt 0.0000 0.0000
vt 1.0000 0.0000
vt -0.0085 0.0000
vt 0.9915 0.0000
vt 0.0000 0.0000
vt 1.0000 0.0000
vt -0.0085 0.0000
vt 0.9915 0.0000
vt 0.0000 1.0000
vt 0.5000 0.5000
vt 1.0000 1.0000
vt 1.0000 0.0000
vt 0.0000 0.0000
vt 0.5000 1.0000
vt 0.0000 0.0000
vt 1.0000 0.0000
vt -0.0085 0.0000
vt 0.9915 0.0000
vt 0.0000 0.0000
vt 1.0000 0.0000
vt -0.0085 0.0000
vt 0.9915 0.0000
vt 0.0000 1.0000
vt 0.5000 0.5000
vt 1.0000 1.0000
vt 1.0000 0.0000
vt 0.0000 0.0000
vt 0.5000 1.0000
vt 0.0000 0.0000
vt 1.0000 0.0000
vt -0.0085 0.0000
vt 0.9915 0.0000
vt 0.0000 0.0000
vt 1.0000 0.0000
vt -0.0085 0.0000
vt 0.9915 0.0000
vt 0.0000 1.0000
vt 0.5000 0.5000
vt 1.0000 1.0000
vt 1.0000 0.0000
vt 0.0000 0.0000
vt 0.5000 1.0000
vt 0.0000 0.0000
vt 1.0000 0.0000
vt -0.0085 0.0000
vt 0.9915 0.0000
vt 0.0000 0.0000
vt 1.0000 0.0000
vt -0.0085 0.0000
vt 0.9915 0.0000
vt 0.0000 1.0000
vt 0.5000 0.5000
vt 1.0000 1.0000
vt 1.0000 0.0000
vt 0.0000 0.0000
vn 0.0000 0.4001 0.9165
vn 0.9140 0.4058 0.0000
vn 0.0000 0.4001 -0.9165
vn -0.9140 0.4058 0.0000
vn -0.0000 -1.0000 0.0000
usemtl wire_224086086
s 1
f 1/1/1 2/2/1 3/3/1
f 1/1/2 3/4/2 4/5/2
f 1/1/3 4/6/3 5/7/3
f 1/1/4 5/8/4 2/9/4
f 2/10/5 6/11/5 3/12/5
f 3/12/5 6/11/5 4/13/5
f 4/13/5 6/11/5 5/14/5
f 5/14/5 6/11/5 2/10/5
f 7/15/1 8/16/1 9/17/1
f 7/15/2 9/18/2 10/19/2
f 7/15/3 10/20/3 11/21/3
f 7/15/4 11/22/4 8/23/4
f 8/24/5 12/25/5 9/26/5
f 9/26/5 12/25/5 10/27/5
f 10/27/5 12/25/5 11/28/5
f 11/28/5 12/25/5 8/24/5
f 13/29/1 14/30/1 15/31/1
f 13/29/2 15/32/2 16/33/2
f 13/29/3 16/34/3 17/35/3
f 13/29/4 17/36/4 14/37/4
f 14/38/5 18/39/5 15/40/5
f 15/40/5 18/39/5 16/41/5
f 16/41/5 18/39/5 17/42/5
f 17/42/5 18/39/5 14/38/5
f 19/43/1 20/44/1 21/45/1
f 19/43/2 21/46/2 22/47/2
f 19/43/3 22/48/3 23/49/3
f 19/43/4 23/50/4 20/51/4
f 20/52/5 24/53/5 21/54/5
f 21/54/5 24/53/5 22/55/5
f 22/55/5 24/53/5 23/56/5
f 23/56/5 24/53/5 20/52/5
o Cube_Cube.000
v -25.000000 -25.000004 24.999996
v -25.000000 -23.000004 24.999996
v -25.000000 -22.999996 -25.000004
v -25.000000 -24.999996 -25.000004
v 25.000000 -22.999996 -25.000004
v 25.000000 -24.999996 -25.000004
v 25.000000 -23.000004 24.999996
v 25.000000 -25.000004 24.999996
vt 0.0000 0.0000
vt 1.0000 0.0000
vt 1.0000 1.0000
vt 0.0000 1.0000
vt 0.0000 0.0000
vt 1.0000 0.0000
vt 1.0000 1.0000
vt 0.0000 1.0000
vt 0.0000 0.0000
vt 1.0000 0.0000
vt 1.0000 1.0000
vt 0.0000 1.0000
vt 0.0000 0.0000
vt 1.0000 0.0000
vt 1.0000 1.0000
vt 0.0000 1.0000
vt 1.0000 0.0000
vt 1.0000 1.0000
vt 0.0000 0.0000
vt 0.0000 1.0000
vn -1.0000 0.0000 0.0000
vn 0.0000 0.0000 -1.0000
vn 1.0000 0.0000 0.0000
vn 0.0000 0.0000 1.0000
vn 0.0000 -1.0000 -0.0000
vn 0.0000 1.0000 0.0000
usemtl None.001
s 1
f 25/57/6 26/58/6 27/59/6 28/60/6
f 28/61/7 27/62/7 29/63/7 30/64/7
f 30/65/8 29/66/8 31/67/8 32/68/8
f 32/69/9 31/70/9 26/71/9 25/72/9
f 28/61/10 30/73/10 32/74/10 25/72/10
f 29/75/11 27/62/11 26/71/11 31/76/11
